<svg fill="currentColor" id="Layer_2" xmlns="http://www.w3.org/2000/svg" viewBox="0 0 390.11 169.11"><g id="Layer_1-2"><path  d="M121.03,168.08c-3.77.36-6.61-.51-8.52-2.6-1.91-2.09-3.11-5.64-3.58-10.67-.52-5.51-.17-14.46,1.04-24.3.3-2.43.5-4.87.59-7.31.51-13.18.89-36.9.64-45.34-.28-9.37-.67-19.81-1.18-31.32-1.21-3.9-.88-7.19,1.01-9.87,1.88-2.69,4.76-4.21,8.63-4.58,3.82-.36,6.88.5,9.19,2.58,2.31,2.08,3.66,5.21,4.06,9.39.12,1.31.16,2.98.12,5.02-.04,2.04-.17,4.25-.36,6.64.79-1.66,1.44-2.96,1.93-3.9.49-.94.97-1.78,1.43-2.51,3.1-5.2,6.55-9.16,10.36-11.87,3.81-2.71,8.22-4.3,13.24-4.78,6.38-.6,12,.73,16.84,3.99,4.85,3.26,8.33,8.04,10.46,14.33,2.12,6.29,2.57,13.27,1.35,20.93-1.42,8.95-5.08,16.47-10.97,22.57-5.89,6.1-12.71,9.51-20.45,10.25-8.74.83-15.75-1.39-21.05-6.64-.49,3.21-2.2,29.79-2.56,33.71-.25,2.68-.49,5.88-.72,9.6-.18,2.89-.17,7.08-.1,9.97.1,4.43-.66,8.06-2.28,10.9-1.99,3.49-5.03,5.42-9.11,5.81M153.25,85.84c3.24-.31,5.86-1.94,7.85-4.9,1.99-2.96,3.13-7.07,3.43-12.32.26-4.46-.19-8.12-1.36-10.99-1.17-2.87-2.77-4.21-4.81-4.02-2.82.27-5.83,2.7-9.01,7.3-3.18,4.6-6.16,10.92-8.94,18.94,2.16,2.22,4.28,3.83,6.35,4.82,2.07.99,4.23,1.38,6.48,1.17"/><path  d="M222.5,106.63c-8.67.82-15.91-.95-21.7-5.31-5.79-4.36-9.07-10.55-9.83-18.57-.58-6.15.4-12,2.96-17.56,2.56-5.56,6.36-10.12,11.4-13.68,5.04-3.56,10.74-5.64,17.1-6.24,8.1-.77,14.53.35,19.29,3.35,4.76,3,7.12,7.54,7.08,13.63-.03,3.62-1.08,6.89-3.17,9.82-2.09,2.93-5.04,5.33-8.87,7.22-3.83,1.88-8.06,3.04-12.7,3.48-5.29.5-10.23.19-14.82-.94.41,3.08,1.64,5.39,3.67,6.92,2.03,1.53,4.7,2.14,8,1.83,1.67-.16,3.4-.5,5.2-1.02,1.8-.52,4.96-1.79,9.5-3.83,1.77-.78,3.38-1.01,4.8-.67,1.43.34,2.52,1.14,3.28,2.4.76,1.26,1.1,2.69,1.02,4.28-.08,1.59-.54,3.04-1.41,4.35-1.86,2.93-4.55,5.3-8.08,7.11-3.53,1.81-7.77,2.95-12.74,3.42M219.64,69.93c3.26-.31,5.8-1.06,7.64-2.26,1.84-1.2,2.68-2.6,2.53-4.18-.17-1.79-1.78-2.54-4.84-2.25-2.65.25-5.16,1.16-7.54,2.71-2.38,1.56-4.31,3.6-5.8,6.13,2.64.16,5.31.11,8-.14"/><path  d="M259.35,127.72c-3.89.88-7.6.8-11.14-.24-3.53-1.04-6.45-2.92-8.74-5.66-1.16-1.41-1.9-2.87-2.24-4.37-.45-1.99-.22-3.78.7-5.39.92-1.6,2.35-2.62,4.29-3.06,1.46-.33,3.12-.27,4.99.2.84.23,1.72.52,2.64.87.91.35,1.7.54,2.36.58.66.04,1.25,0,1.78-.12,2.08-.47,3.47-1.97,4.18-4.5.71-2.53.83-6.55.37-12.07-.34-4.15-.87-9.05-1.61-14.69-.74-5.64-1.61-11.39-2.61-17.26-1-5.86-2.03-11.23-3.08-16.1-1.07-4.92-1.03-8.7.12-11.35,1.14-2.65,3.37-4.35,6.69-5.1,3.54-.8,6.39-.22,8.55,1.73,2.16,1.95,3.84,5.58,5.04,10.89,1.02,4.51,2.03,10.03,3.01,16.57.99,6.54,1.82,13.11,2.47,19.73.66,6.61,1.03,12.17,1.12,16.65.22,9.8-1.21,17.33-4.27,22.58-3.07,5.25-7.94,8.63-14.61,10.14M257.97,21.1c-3.23.73-6.16.42-8.79-.94-2.63-1.36-4.26-3.41-4.88-6.15-.55-2.43-.15-4.74,1.19-6.93,1.34-2.19,3.37-3.86,6.08-5.03,1.06-.84,2.35-1.44,3.85-1.78,2.74-.62,5.32-.19,7.75,1.28,2.42,1.47,3.97,3.67,4.63,6.59.69,3.05.13,5.77-1.68,8.15-1.81,2.38-4.53,3.99-8.15,4.8"/><path  d="M301.09,109.37c-5.04.2-9.05-1.27-12.04-4.42-2.99-3.15-4.6-7.67-4.84-13.56-.28-6.95,1.1-13.77,4.14-20.46,3.04-6.68,7.26-12.06,12.65-16.12,5.39-4.06,11.35-6.23,17.88-6.49,3.84-.16,7.37.49,10.59,1.95.85-.12,1.53-.19,2.04-.21,6.23-.25,9.48,3.06,9.76,9.93.14,3.37-.49,7.46-1.88,12.26-.07,1.33-.13,2.94-.16,4.85-.03,1.9-.01,3.6.05,5.09.15,3.67.41,6.48.79,8.43.22.16.58.44,1.09.82.51.39,1.11.88,1.82,1.5,2.04,1.76,3.1,3.79,3.2,6.09.09,2.31-.76,4.29-2.55,5.97-1.79,1.67-4.12,2.57-6.98,2.68-2.3.09-4.48-.4-6.53-1.47-2.05-1.07-3.69-2.5-4.92-4.29-1.36-1.95-2.32-4.44-2.86-7.45-2.76,4.81-5.88,8.45-9.37,10.92-3.49,2.47-7.45,3.79-11.89,3.97M304.74,91.72c1.66-.07,3.48-1.17,5.44-3.3,1.97-2.13,3.93-5.22,5.91-9.28,1.97-4.05,3.91-9.01,5.81-14.85-.95-.18-1.85-.25-2.7-.21-2.56.1-4.97,1.06-7.23,2.85-2.26,1.8-4.21,4.29-5.85,7.48-1.64,3.19-2.7,6.48-3.16,9.87-.33,2.45-.35,4.31-.06,5.58.29,1.27.9,1.89,1.84,1.85"/><path  d="M149.91,157.14c-4.63,0-8.28-1.54-10.97-4.62-2.68-3.08-4.03-7.32-4.03-12.71,0-1.22.08-2.5.24-3.85.45-3.83,1.54-7.16,3.27-9.97,1.73-2.82,4.03-5,6.9-6.54,2.87-1.55,6.03-2.32,9.5-2.32,2.67,0,4.88.45,6.62,1.35,1.75.9,2.8,2.18,3.17,3.85.1.42.16.87.16,1.35,1.85,1.14,3.27,2.66,4.24,4.58.98,1.92,1.47,4.13,1.47,6.64,0,2.8-.61,5.79-1.82,8.96-1.53,3.94-4,7.14-7.42,9.6-3.41,2.46-7.19,3.69-11.34,3.69M150.23,146.63c1.61,0,3.16-.67,4.64-2.02,1.48-1.35,2.55-3.13,3.21-5.35,1.16-3.94.63-6.82-1.59-8.65-1.24-1-1.97-2.14-2.18-3.41-3.91.42-6.29,3.71-7.14,9.88-.87,6.37.14,9.56,3.05,9.56"/><path  d="M205.82,158.26c-1.8,0-3.41-.7-4.84-2.1-1.14-1.08-1.99-2.39-2.56-3.93-.57-1.53-.91-3.46-1.01-5.79-.34.66-.66,1.24-.95,1.75-.29.5-.57.97-.83,1.39-3.46,5.45-7.83,8.17-13.09,8.17-3.46,0-6.17-1.14-8.13-3.43-1.96-2.28-2.93-5.53-2.93-9.73,0-2.78.26-6.13.77-10.05.52-3.93,1.2-7.82,2.04-11.68.34-1.51,1.07-2.71,2.18-3.61,1.11-.9,2.42-1.35,3.93-1.35,1.8,0,3.23.62,4.3,1.86,1.07,1.24,1.45,2.88,1.13,4.92-.53,3.38-1.12,6.96-1.76,10.73-.65,3.77-.97,6.71-.97,8.82,0,.98.07,1.67.2,2.08.13.41.36.61.67.61,1.35,0,3.29-2.05,5.83-6.15,1.4-2.25,2.82-4.86,4.26-7.83,1.44-2.97,2.86-6.21,4.26-9.7.11-.5.19-.88.26-1.13.07-.25.15-.49.26-.73.42-.92,1.1-1.65,2.04-2.18.94-.53,2-.79,3.19-.79,1.88,0,3.38.64,4.52,1.92,1.14,1.28,1.59,2.99,1.35,5.14-.11.82-.25,1.86-.44,3.13-.18,1.27-.3,2.09-.36,2.46-.42,3.33-.75,6.15-.99,8.45-.24,2.3-.36,3.89-.36,4.76,0,2.06.7,3.99,2.1,5.79.9,1.11,1.35,2.26,1.35,3.45,0,1.32-.53,2.45-1.59,3.37-1.06.92-2.34,1.39-3.85,1.39"/><path  d="M230.8,165.44c-4.02,0-7.24-1.07-9.66-3.21-2.42-2.14-3.84-5.26-4.26-9.36-.18-1.96-.22-4.16-.1-6.6.12-2.45.4-5.15.85-8.11-.18,0-.38,0-.59.02-.21.01-.52.02-.91.02-1.77,0-3.21-.47-4.3-1.41-1.1-.94-1.65-2.23-1.65-3.87,0-1.43.51-2.6,1.53-3.51,1.02-.91,2.41-1.49,4.18-1.72.37-.05.94-.12,1.73-.22.78-.09,1.51-.16,2.2-.22.53-2.09.88-3.48,1.07-4.18.18-.7.37-1.35.55-1.96.5-1.8,1.27-3.17,2.3-4.1,1.03-.94,2.31-1.41,3.85-1.41,1.96,0,3.4.74,4.32,2.22.93,1.48,1.08,3.53.48,6.15l-.48,2.18c2.22-.16,3.83-.27,4.84-.34,1-.07,1.73-.1,2.18-.1,1.77,0,3.18.41,4.22,1.23,1.04.82,1.57,1.93,1.57,3.33,0,1.11-.34,2.1-1.01,2.95-.67.86-1.66,1.48-2.95,1.84-.69.21-2.04.49-4.05.83-2.01.34-4.28.67-6.82.99-.48,3.01-.8,5.75-.97,8.21-.17,2.46-.17,4.56.02,6.31.26,2.43,1.22,3.65,2.86,3.65.63,0,1.7-.22,3.19-.67,1.49-.45,2.5-.73,3.03-.83,1.37-.29,2.45-.12,3.23.5.78.62,1.17,1.62,1.17,2.99s-.41,2.63-1.23,3.77c-1.06,1.51-2.49,2.66-4.3,3.45-1.81.79-3.84,1.19-6.09,1.19"/><path  d="M278.11,168.61c-.42-.03-.87-.11-1.33-.23-2.07-.59-3.68-1.95-4.82-4.07-1.14-2.12-1.74-4.95-1.8-8.48-2.32,3.13-4.73,5.35-7.22,6.68-2.49,1.33-5.35,1.86-8.56,1.6-3.48-.28-6.24-1.62-8.27-4.03-2.03-2.41-2.9-5.45-2.61-9.14.12-1.45.41-2.9.87-4.35,1.06-3.34,2.84-6.31,5.33-8.92,2.49-2.61,5.42-4.58,8.77-5.9,3.35-1.32,6.76-1.84,10.21-1.56,1.34.11,2.76.36,4.24.74,1.07-4.74,1.89-8.09,2.44-10.05.55-1.96,1.11-3.66,1.67-5.12.55-1.45,1.43-2.58,2.62-3.37,1.19-.79,2.5-1.13,3.92-1.02,1.79.14,3.2.93,4.23,2.35,1.03,1.42,1.34,3.2.96,5.35-.45,2.62-1.02,5.2-1.7,7.74-.68,2.54-1.66,5.62-2.93,9.23-.67,2.7-1.23,5.38-1.68,8.02-.45,2.64-.77,5.1-.95,7.36-.15,1.9-.12,3.54.1,4.92.22,1.38.7,2.72,1.45,4.02.74,1.29,1.07,2.53.97,3.72-.11,1.4-.73,2.53-1.86,3.39-1.13.86-2.47,1.23-4.03,1.11M256.9,153.89c1.37.11,2.85-.51,4.45-1.87,1.59-1.36,3.33-3.48,5.21-6.38.94-1.46,1.89-3.2,2.85-5.22-.37-.08-.65-.13-.86-.15-2.77-.22-5.35.6-7.76,2.46-2.41,1.86-4.12,4.37-5.14,7.52-.35,1.06-.43,1.91-.23,2.57.2.65.69,1.01,1.48,1.07"/><path  d="M301.4,158.86c-4.79,0-8.68-1.48-11.7-4.44-3.01-2.96-4.52-6.77-4.52-11.42,0-3.86.96-7.56,2.87-11.1,1.92-3.54,4.51-6.33,7.79-8.37,3.28-2.04,6.9-3.05,10.87-3.05,1.75,0,3.38.27,4.9.81,1.52.54,2.77,1.33,3.75,2.36.45.5.78.98.99,1.43.79.34,1.52.83,2.18,1.47,1.3,1.22,2.33,2.84,3.09,4.86.77,2.02,1.15,4.24,1.15,6.64,0,3.46-.97,6.84-2.9,10.13-1.93,3.29-4.53,5.9-7.79,7.81-3.27,1.92-6.83,2.88-10.69,2.88M301.72,148.51c1.51,0,2.99-.5,4.44-1.51,1.45-1,2.68-2.36,3.67-4.07.99-1.7,1.49-3.3,1.49-4.78,0-.77-.12-1.53-.36-2.3-.24-.77-.71-1.75-1.43-2.93-.26-.42-.49-.94-.67-1.55-.74-.24-1.56-.36-2.46-.36-1.61,0-3.15.55-4.62,1.65-1.47,1.1-2.67,2.58-3.61,4.44-.94,1.86-1.41,3.68-1.41,5.45s.46,3.21,1.37,4.3c.91,1.1,2.11,1.65,3.59,1.65"/><path  d="M339.21,155.86c-4.63,0-8.28-1.54-10.97-4.62-2.68-3.08-4.03-7.32-4.03-12.71,0-1.22.08-2.5.24-3.85.45-3.83,1.54-7.16,3.27-9.97,1.73-2.82,4.03-5,6.9-6.54,2.87-1.55,6.03-2.32,9.5-2.32,2.67,0,4.88.45,6.62,1.35,1.74.9,2.8,2.18,3.17,3.85.11.42.16.87.16,1.35,1.85,1.14,3.26,2.66,4.24,4.58.98,1.92,1.47,4.13,1.47,6.64,0,2.8-.61,5.79-1.82,8.96-1.53,3.94-4,7.14-7.42,9.6-3.41,2.46-7.19,3.69-11.34,3.69M339.52,145.35c1.61,0,3.16-.67,4.64-2.02,1.48-1.35,2.55-3.13,3.21-5.35,1.16-3.94.64-6.82-1.59-8.65-1.24-1-1.97-2.14-2.18-3.41-3.91.42-6.29,3.71-7.14,9.87-.87,6.37.15,9.56,3.05,9.56"/><path  d="M369.96,153.25c-1.67.42-3.12.25-4.37-.53-1.25-.77-2.11-2.1-2.59-3.97-.12-.49-.22-1.03-.3-1.64-.54-4.8-1.08-9.25-1.62-13.36-.54-4.1-1.13-8.26-1.76-12.46-.26-1.79-.02-3.28.75-4.47.76-1.19,1.96-1.99,3.6-2.41,1.77-.45,3.31-.25,4.62.61,1.31.85,2.13,2.26,2.47,4.22.1.6.19,1.25.29,1.95.1.7.2,1.53.3,2.48l.34-1.07c1.02-2.96,2.31-5.33,3.87-7.12,1.56-1.79,3.4-2.95,5.5-3.49,2.23-.57,4.18-.44,5.87.39,1.57.8,2.56,2.04,2.99,3.7.36,1.41.22,2.73-.42,3.95-.64,1.23-1.67,2.02-3.08,2.38-.49.12-.96.19-1.42.2-.76,0-1.49.09-2.18.27-1.02.26-2.02,1.06-2.97,2.39-.96,1.33-1.86,3.17-2.71,5.52-.79,2.25-1.44,4.72-1.93,7.43-.5,2.7-.79,5.43-.88,8.18.23,1.77-.04,3.25-.81,4.44-.77,1.19-1.96,1.99-3.54,2.4"/><path  d="M5.89,90.67l.12-.38s.04.03.06.05c.19.15.15.35.08.43-.13.17-.18-.02-.26-.1"/><path  d="M10.32,103.54c-.17.28-.15.71-.67.67-.17-.02-.29.17-.38.3-.65.95-1.56,1.74-1.91,2.89-.11.35-.5.23-.69.45-.22.25-.45.33-.7,0-.11-.15-.26-.13-.39,0-.14.14-.29.28-.43.41-.26.23-.68.14-.81-.19-.24-.59-.57-1.12-.92-1.64-.3-.46-.54-.46-.81,0-.24.41-.46.82-.78,1.18-.18.21-.32.44-.6.53-.23.08-.3.28-.36.5-.11.38-.29.65-.68.88-.06.04-.11.07-.17.12l2.53-8.15c.07,0,.14,0,.22-.02.21-.01.48.05.35-.32-.02-.06.02-.15.09-.12.42.17.14-.2.22-.29.26.12.18.46.4.61.15-.13.3-.48.44,0,.06.21.24.21.41.19.12-.01.55-.38.66-.48.1-.1.3-.24.38-.2.22.11.46-.05.73.18.3.25.77.49,1.25.38.07-.02.15-.02.23-.02.86-.05.86-.04.98.79.05.36.15.72.3,1.05.18.37.43.55.84.34.08-.04.16-.11.29-.05"/><path  d="M10.95,93.54c.08.13,0,.25-.06.34-.75,1.07-.96,2.3-1.11,3.55-.04.36-.3.64-.39.98-.16.57-.3,1.14-.46,1.78-.09-.29-.43-.33-.42-.77-.08.2-.12.29-.16.39-.17-.17.1-.34-.05-.5-.21.27-.29.11-.35-.12-.08-.3-.13-.64-.59-.43-.24-.35-.78-.05-1.03-.49-.15-.26-.22.08-.24.15-.02.08.03.18-.11.19-.09,0-.18.01-.22-.11-.09-.25-.26-.46-.46-.64-.07-.07.02-.27-.16-.22-.15.04-.11.2-.11.32,0,.09.06.18-.04.29-.2-.15-.16-.43-.35-.6-.13.19-.26.39-.43.63-.12-.3-.4-.49-.32-.86.01-.06,0-.11-.05-.14l1.59-5.11c.37.36.74.72,1.09,1.08.13.13.28.22.44.19.35-.08.7-.05,1.05-.05.27,0,.32-.13.19-.35-.05-.08-.1-.15-.16-.22-.27-.32-.48-.66-.59-1.08-.13-.53-.22-.54-.74-.3.04-.37-.34-.58-.34-.99.8.6,1.62,1.1,2.08,1.98.13.25.27.3.48.14.14-.11.13-.02.15.09.05.26.28.26.46.25.24-.01,1.29.43,1.4.63"/><path  d="M13.84,70.93c.01-.72.24-1.38.63-2.04.19.41.03.75-.04,1.08-.08.34-.19.68-.28,1.01-.03.09-.05.19-.16.19-.15,0-.14-.14-.14-.24"/><path  d="M16.86,57.35c-.62.96-1.24,1.93-1.76,2.96-.09-1.06.7-2.38,1.76-2.96"/><path  d="M16.17,70.68c.11.09.18.2.13.47-.07.23-.11.6-.37.88-.23.25-.48.19-.58-.14-.13-.41.09-.94.5-1.16.1-.05.18-.17.32-.06"/><path  d="M16.2,73.41c.41-.67.92-1.28,1.14-2.06-.03.6-.25,1.14-.48,1.66-.32.73-.53,1.5-.99,2.16-.15.22-.32.58-.61.42-.33-.19-.15-.55.01-.81.29-.47.64-.9.93-1.37"/><path  d="M13.88,98.74c.07-.39.05-.76-.09-1.12-.04-.1,0-.19.08-.25.97-.75,1.19-1.89,1.55-2.95.06-.18.13-.34.18-.52.06-.22.18-.28.4-.28.61,0,1.23.04,1.83-.08-1.05,1.41-2.1,2.81-3.16,4.21-.25.34-.51.67-.8,1"/><path  d="M17.86,93.53s-.02,0-.02,0c0,0,0,0,0-.01,0,0,0,0,0-.02,0,0,0,.02,0,.02"/><path  d="M17.85,93.51c-.11-.5-.58-.83-.65-1.36-.02-.16-.03-.29,0-.42.26-.08.05.36.34.25.12-.04.13,0,.12.39.17,0,.11-.25.32-.27-.28.39.23.5.26.78-.16.14-.19-.13-.36-.06.37.26.08.46-.04.68"/><path  d="M18.56,55.66c-.29.29-.6.56-.98.91.18-.57.14-1.11.73-1.28.15-.04.35-.12.43,0,.11.15-.09.27-.19.37"/><path  d="M25.22,80.62c-.11-.63-.08-.85.19-1.39,0,.54-.04.97-.19,1.39"/><path  d="M24.93,79.39c-.39-.53-.22-1.62.38-2.38.2.84.19,1.66-.38,2.38"/><path  d="M26.79,76.59c0,1.19-.42,2.25-.97,3.4.04-1.22.21-2.31.29-3.4.03-.35.19-.38.46-.39.33,0,.21.24.21.39"/><path  d="M27.44,76.42c-.07.21-.11.44-.36.72.02-.34.03-.56.06-.79.02-.16.14-.25.29-.2.17.06.04.19.01.27"/><path  d="M29.68,55.94c-.06-.03-.14-.09-.1-.18.02-.04.09-.07.15-.08.41-.05,1.16.65,1.18,1.13-.42-.29-.78-.65-1.22-.87"/><path  d="M18.23,89.14c1.48-1.41,2.6-3.07,3.35-4.98.48-1.21.99-2.4,1.66-3.52.29-.49.54-.99.75-1.52.06-.16.11-.34.32-.48-.22,1.4-.25,2.76-.28,4.12,0,.16-.15.45.21.43.31-.02.31-.27.27-.48-.21-.97,0-1.94,0-2.93.21.11.18.28.17.42,0,.3.03.58.2.83.07.11.11.23.06.35-.16.4.13.39.37.42.38.04.22-.22.2-.4,0-.09,0-.18.05-.26.61-1.06,1-2.22,1.48-3.34.23-.53.65-.99.81-1.58.02-.05.11-.12.17-.13.7-.11,1.36-.35,2.07-.56-.03.24-.14.38-.23.52-2.84,4.62-5.83,9.14-9.05,13.5-.32.43-.61.88-.91,1.32-.11.16-.13.16-.35.03-.5-.29-.76-.84-1.28-1.1-.29-.15-.37-.36-.05-.66"/><path  d="M29.63,56.51c.25.03.49.25.69.52-.36.1-.67-.07-1.04.08.1-.29.18-.62.35-.6"/><path  d="M33.54,69c.4-.74,1-1.34,1.47-2.05-.12.79-1.05,2.09-1.47,2.05"/><path  d="M27.88,95.55c-.1.19-.18.39-.29.57-.09.13-.22.27-.42.13-.26-.18-.44-.03-.56.18-.49.87-1.11,1.65-1.43,2.61-.25.77-.64,1.49-1.06,2.19-.28.47-1.08.56-1.45.15-.21-.23-.4-.49-.62-.71-.22-.22-.44-.32-.69,0-.24.31-.58.55-.76.91-.12.24-.25.2-.34,0-.17-.37-.34-.75-.49-1.14-.1-.25-.23-.35-.52-.34-.42.02-.74-.06-.9-.6-.19-.6-.79-.94-1.27-1.34-.14-.12-.25.01-.37.08-.32.18-.65.34-.96.53-.47.29-.98.17-1.49.16-.08-.12.04-.19.09-.27,1.14-1.49,2.29-2.99,3.43-4.48.22-.29.44-.57.91-.44-.46-.32-.27-.52.02-.72.21.11-.13.37.09.37.27,0,.15-.36.35-.5.24.27.43.66.86.77.04-.5-.66-.79-.43-1.36.04,0,.09-.01.09,0,.34.66.97.98,1.52,1.41.07.06.15.11.21.18.27.3.27.3.45-.02.03-.06.11-.12.13-.07.06.16.32.14.31.35-.03.51.26.13.48.23-.12-.25-.4-.22-.31-.44.08-.22.24-.02.36-.05.3-.08.35-.29.27-.53-.07-.19.14-.63-.36-.49-.22.06-.27-.09-.34-.22-.25-.46-.27-.46-.6.02.02-.36,0-.66-.25-.92-.18.33-.34.56-.58.05-.07-.16-.36-.2-.41-.45-.01-.05-.13-.08-.15-.01-.08.23-.25.19-.35.07-.11-.13.05-.25.13-.35.67-.95,1.35-1.9,2.03-2.84,2.94-4.08,5.59-8.34,8.32-12.55.09-.14.16-.28.35-.33,1.19-.32,2.39-.65,3.59-.97-.21,1.55-.42,3.06-.08,4.6.1.44-.07.86-.26,1.24-.47,1-.48,1.98.02,2.96.12.25.14.49.01.75-.23.48-.23,1.01-.28,1.52,0,.1.04.23-.09.29-.12.05-.2-.05-.26-.14-.43-.6-1.09-.98-1.55-1.55-.04-.05-.12-.12-.18-.12-.53,0-.69-.42-.91-.78-.13-.22-.22-.5-.58-.31-.12.06-.18-.09-.22-.18-.15-.29-.36-.28-.47-.02-.18.44-.66.46-.94.76-.28.33-.54.71-1.03.78-.1.02-.22.13-.27.23-.32.62-.82,1.06-1.38,1.45-.45.31-.6.94-1.18,1.12,1.06-.11,2.1.04,3.15.02.97-.02,1.91-.18,2.86-.35.43-.08.85-.17,1.31-.07.41.09.85.04,1.28-.02.24-.03.35.05.35.29.01.75.11,1.49.23,2.24.03.17,0,.3-.14.4-.25.18-.41.43-.5.7-.35,1.07-1.04,1.98-1.41,3.04-.03.08-.09.15-.13.23-.2-.05-.19-.24-.27-.36-.13-.2-.19-.56-.44-.53-.34.04-.7.15-.95.48-.5.66-.72,1.47-1.19,2.14-.5-.29-.8-.19-1.08.37"/><path  d="M34.8,66.31c.14-.02.14-.25.35-.18-.16.35-.4.63-.62.93-.42.57-.85,1.12-1.27,1.69-.19.26-.97.53-1.26.43-.09-.03-.12-.1-.12-.18-.04-.49-.37-.78-.75-.97-.32-.16-.25-.27-.05-.44.46-.4.93-.79,1.39-1.19.21-.18.42-.35.63-.53.61-.54,1.04-.54,1.69-.04.25.19-.02.32,0,.48"/><path  d="M38.32,63.1c-.06-.05-.11-.11-.06-.19.11-.2.23-.39.47-.49.08.3-.19.45-.25.67-.02.05-.11.05-.16.01"/><path  d="M47.15,64.9c-.16-.23.05-.26.2-.34.33-.17.66-.36.76-.74.08-.3.28-.04.34-.09.25-.21.61-.31.75-.65.04-.09-.04-.3.17-.24.15.04.15.22.16.36,0,.13-.04.25-.15.32-.5.3-.82.77-1.2,1.19-.16.17-.35.29-.54.42-.29.18-.39-.05-.5-.22"/><path  d="M37.52,67.31c.25.2.6.14.91.26.49.18.87.65,1.46.55.13-.02.15.13.22.21.12.15.25.19.47.2.73,0,1.45-.02,2.07.53,1.83,1.6,3.7,3.16,5.55,4.74.87.75,1.73,1.49,2.64,2.27-.65.36-.9.95-1.12,1.55-.15.42-.39.48-.74.29-.19-.11-.34-.19-.5.03-.04.06-.14.08-.21.04-.46-.3-.57.05-.7.37-.39.97-.84,1.93-1.06,2.97-.02.09-.02.23-.08.26-.43.23-.78.52-.96.99-1.02.15-1,1.12-1.38,1.77-.2.35-.65.38-.89.8-.03-.59-.21-.98-.68-1.19-.25-.12-.49-.15-.75-.03-.19.09-.39.17-.59.25-.66.27-1.3.46-2.04.15-.19-.08-.58-.18-.9-.07.36-.23.45-.51.37-.93-.13-.74-.16-1.48.11-2.21.18-.46.17-.96.15-1.45-.06-1.19.05-2.37.22-3.56.09.31.31.4.58.46.8.18,1.59.29,2.41.29.33,0,.65.04.95.13.7.2,1.41.2,2.12.23.68.03,1.39-.04,2.08.18-.06-.42-.23-.59-.69-.5-.59.11-1.15.07-1.39-.63-.03-.09-.1-.19-.19-.18-.41.06-.84.08-1.21.24-.66.29-.68.33-1.17-.17-.03.09-.05.17-.08.28-.06-.1-.11-.19-.17-.26-.33-.38-.68-.74-1-1.14-.37-.45-.68-.51-1-.02-.28.43-.74.43-1.09.67-.24.16-.19-.15-.18-.26.06-.84.14-1.68.22-2.52.05-.58.09-1.16,0-1.74-.19-1.17-.9-1.86-2.08-2.05-.78-.13-1.56-.1-2.34-.15-.13,0-.27-.01-.46-.03.45-.8.95-1.51,1.32-2.29.07-.15.19-.15.3-.07.46.34,1.07.37,1.52.73"/><path  d="M43,68.76c1.9,0,3.74-.24,5.59-.45.57-.07.97.06,1.4.41,1.22.99,2.47,1.95,3.72,2.91.23.17.32.33.18.6-.36.7-.7,1.43-1.2,2.05-.2.25-.44.48-.55.78-.16.45-.61.52-.92.76-.16.12-.25-.06-.34-.14-1.87-1.62-3.74-3.25-5.61-4.87-.67-.58-1.35-1.15-2.03-1.73-.09-.08-.22-.12-.25-.33"/><path  d="M53.85,71.31c-1.2-.97-2.41-1.93-3.61-2.9-.05-.04-.08-.09-.12-.13.63.24,1.19.14,1.76-.19.22-.12.44-.08.58.18.1.2.28.32.51.34.52.05.84.46,1.28.67.1.05.13.12.11.22-.08.57-.17,1.15-.25,1.72-.03.23-.12.2-.26.09"/><path  d="M56.76,63.88c-.23.4-.62.6-.94.88.2-.41.49-.74.94-.88"/><path  d="M61.73,57.82c.61-1.12,1.18-2.26,2.04-3.22-.04.32-1.71,2.93-2.04,3.22"/><path  d="M64,54.95c-.19.61-.53,1.12-1.01,1.55.27-.56.5-1.14,1.01-1.55"/><path  d="M63.07,61.55c-.13-.43.17-.7.44-.91.23-.19.49-.33.7-.56-.16.67-.8.95-1.13,1.47"/><path  d="M62.73,57.61c.74-.41.9-1.23,1.33-1.86.12-.18.24-.35.6-.4-.26.29-.36.54-.36.84,0,.11-.03.27-.25.16-.16-.08-.17.12-.19.23-.11.42-.15.85-.69,1.01-.21.06-.36.31-.58.51-.06-.25.03-.45.15-.51"/><path  d="M64.55,64.49c.22-.03.36-.21.69-.19-.4.43-.49.96-.79,1.36-.23.32-.49.7-1.03.61-.29-.05-.44.24-.57.47-.15.28-.27.58-.41.88-.29-.17-.48-.58-.81-.48-.32.1-.21.67-.41.8-.49.31-.63.99-1.29,1.12-.31.06-.57.34-.86.52-.22.14-.38.1-.53-.14-.28-.46-.59-.89-.88-1.34-.38-.59-.9-1.03-1.49-1.4-.54-.33-.86-.23-1.09.37-.19.48-.31.99-.48,1.48-.05.15-.03.45-.27.38-.25-.08-.57-.2-.52-.6.03-.2.12-.38.22-.55.32-.55.2-1-.35-1.34-.14-.09-.26-.21-.38-.31-.95-.81-1.94-.31-2.85-.03-.99.3-1.92.19-2.88.07-.02-.11.11-.09.1-.11-.07-.54.46-.48.69-.71.25-.25.58-.38.81-.67.26.67,1.26.94,1.78.51.07-.06.12-.14.23-.07.62.4,1.27.27,1.93.14.09-.02.19-.07.27-.05.68.2.96-.21,1.24-.73.45-.84,1.03-1.61,1.61-2.39.14.2.03.36-.01.5-.26.81-.53,1.62-1.18,2.23-.14.13-.24.29-.1.48h-.02c.28.15.35-.15.52-.27.02.05.06.09.05.12,0,.19-.19.41.02.56.21.15.27-.19.45-.21.19-.02.4.01.57.02.5,0,1.05.11,1.52-.13,1.01-.52,1.61-1.4,2.05-2.43.22-.52.5-1.03.96-1.51-.13.89-.95,1.44-.87,2.35.26-.09.28-.47.59-.47.13.17.02.37.04.55.5-.54.99-1.09,1.05-1.88.02-.18.09-.32.18-.46.41-.61.81-1.23,1.23-1.83.05-.07.07-.49.33-.13.04-.05.1-.1.12-.16.1-.27.23-.53.47-.71-.29.54-.36,1.17-.68,1.73-.04-.12-.07-.22-.15-.44-.19.59-.51,1.01-.31,1.56-.36.14-.54.41-.61.81.37-.19.53-.57.87-.78-.19.87-1.18,1.37-1.11,2.37.28-.02.23-.38.49-.46.04.24-.14.39-.2.57-.07.21-.08.34.2.36.61.04,1.21.12,1.83.05"/><path  d="M65.32,52.75s0,0,.02-.02c0,0,0,.02,0,.02,0,0,0,0-.01,0v-.02Z"/><path  d="M65.32,52.77c0,.06,0,.11,0,.17.14,0,.16.05.09.16-.31.51-.62,1.03-.99,1.64.06-.5.41-.76.44-1.15-.37.32-.53.78-.78,1.21-.14-.33.73-1.7,1.24-2.04"/><path  d="M98.35,19.73l-24.75,31.24-1.01,7.93c-.03-.05-.05-.11-.08-.15-.11-.22-.2-.45-.28-.68-.05-.15-.11-.26-.28-.24-.35.04-.49-.19-.6-.46-.11-.29-.23-.57-.31-.86-.06-.23-.18-.36-.42-.42-.26-.06-.33.13-.46.31-.12-.52-.4-.93-.56-1.38-.03-.07-.1-.19-.12-.18-.54.11-.47-.37-.63-.62-.11-.18-.21-.36-.44-.44-.32-.12-.43-.44-.5-.73-.19-.73-.64-1.32-.96-1.98-.05-.11-.14-.21-.24-.27-.18-.12-.32-.26-.47.13-.24.63-.4,1.32-.91,1.83.05-.36.39-.62.39-1.03-.35.17-.46.48-.54.79-.18-.04-.05-.21-.2-.28-.11.27-.23.54-.34.81-.1-.07,0-.28-.18-.27-.12,0-.17.12-.22.21-.06.14-.13.28-.18.42-.22.72-.63,1.32-1.17,1.83-.25.25-.48.52-.61.85-.06.14-.17.17-.33.22-.41.12-.85.27-1.08.67-.28.51-.41,1.08-.49,1.66.43-.56.67-1.25,1.12-1.81.11.16.03.27-.02.36-.42.73-.73,1.52-1.07,2.28-.03.07-.04.34-.21.04-.07-.12-.24.08-.35.17-.16.14-.25.37-.5.43-.05-.2.22-.29.13-.5-.42.31-.41.95-.94,1.16-.08-.23.19-.26.23-.47-.43.18-.57.53-.69.89-.12.36-.77,1.05-1.1,1.23-.25.14-.44.37-.62.68-.07-.77.42-1.05.91-1.33.3-.18.61-.34.71-.73.07-.27.04-.44-.19-.59-.31-.2-.56-.47-.76-.79-.23-.37-.66-.51-1.01-.63-.48-.16-.73-.45-.91-.85-.19-.42-.4-.82-.74-1.14-.13-.12-.2-.14-.29.06-.25.6-.77,1.08-1.04,1.64-.22.47-.57.74-.86,1.1-.26.32-.32.82-.66,1.07-.46.35-.61,1.01-1.29,1.21.19-.5.66-.73.87-1.25-.98.77-1.8,1.58-2.63,2.39-.04-.28.12-.35.32-.41.1-.03.18-.12.14-.25-.04-.11-.14-.1-.23-.09-.27.03-.48-.02-.55.44-.1.62-.58,1.14-1.11,1.53-.18.13-.3-.27-.55-.25-.03,0,.11-.17.2-.25.45-.41.93-.79,1.33-1.33-.37-.04-.59.1-.72.35-.27.49-.77.79-.99,1.31-.12.27-.38.03-.59.21-.29.26-.25-.17-.33-.32-.13-.26-.25-.35-.55-.34-.1,0-.11-.08-.15-.14-.41-.57-.89-1.03-1.5-1.43-.78-.51-1.45-1.21-1.99-2-.23-.33-.45-.65-.76-.91-.38-.32-.63-.32-.88.1-.32.54-.58,1.11-.84,1.68-.23.51-.5,1.01-.63,1.57-.02.07-.06.16-.16.12-.11-.04-.11-.15-.07-.23.12-.25.25-.51.36-.78-.18.12-.29.28-.38.48-.14.32-.39.35-.55.07-.4-.7-.97-1.21-1.57-1.71-.13-.11-.27-.25-.05-.4.25-.18.2-.34-.02-.49-.27-.18-.12-.29.06-.39.2-.12.42-.18.66-.11.23.07.47.15.71.19.41.07.75-.17.72-.56-.04-.4.06-.75.17-1.11.08-.28.17-.5.52-.54.36-.03.46-.25.29-.58-.12-.25-.23-.5-.34-.75-.09-.22-.16-.43.09-.61.15-.11.15-.27.07-.46-.11-.27-.18-.55-.1-.85q.38.25.57-.44c.12.06.13.25.32.26-.16-.43.26-.95-.21-1.32-.4-.32-.61-.87-1.2-.96-.1-.02-.23-.04-.14-.24.07-.16-.14-.16-.24-.19-.32-.1-.63-.21-.87-.47-.34-.35-.81-.21-1.22-.28-.5-.08-1.02.1-1.53-.06-.12-.04-.21.18-.32.23-.18.08-.23.47-.54.22-.02-.01-.1.02-.11.04-.08.38-.45.3-.73.42.1.12.18.22.35.43-.28-.12-.43-.38-.64-.16,0,.17.25.05.25.24-.05.11-.2.12-.3.2-.36.25-.76.41-.59,1.04.08.3-.14.72-.14,1.11,0,.41.17.77.29,1.14.12.38.19.76.26,1.15.02.08.05.19-.06.24-.11.04-.17-.06-.23-.12-.16-.15-.3-.31-.44-.47-.28-.31-.61-.56-1.01-.7-.26-.09-.3-.2-.3-.51,0-.71-.14-1.44-.32-2.13-.12-.44-.59-.65-.95-.9-.94-.65-1.98-1.09-2.99-1.59-.84-.42-1.64-.26-2.41.14-.72.38-1.26.96-1.77,1.58-.09.11-.15.26-.36.23-.41-.06-.52.2-.59.54-.09.46-.08.94-.33,1.37-.12.2-.25.33-.51.23-.21-.09-.43-.13-.61.11-.07.09-.25.14-.38.14-.57-.02-.86.31-.95.8-.17.96-.71,1.61-1.46,2.21-1.01.82-1.56,1.92-1.4,3.27.05.43-.32.72-.33,1.13,0,.13-.16.08-.22.02-.25-.25-.34-.08-.52.12-.43.49-.62,1.06-.6,1.69.03,1.02-.25,2.04.05,3.06.1.34.14.71.34.99.45.65.35,1.33.21,2.03-.08.39-.18.77-.17,1.18,0,.29.11.51.42.58.31.07.45-.15.56-.37.24-.48.3-1.02.45-1.6.3.27.57.52.84.76-.18.2-.36.39-.52.6-.19.24-.27.51-.25.81.02.35.14.65.5.74.36.1.64-.08.81-.39.17-.32.3-.67.42-1.01.06-.16.07-.32.29-.23.2.08.17.23.1.38-.14.27-.27.54-.42.81-.4.71-.86,1.38-1.34,2.03-.22.29-.43.6-.52.97-.06.29-.08.6.22.78.3.19.59.09.84-.12.36-.3.55-.72.83-1.18.08.88-.03,1.67-.2,2.46-.04.18-.05.36-.09.54-.04.17-.05.29.19.31.22.02.29-.04.31-.26.08-.88.22-1.76.18-2.65-.06-1.3.34-2.49.89-3.66.21.34.22.5.04.93-.07.17-.22.35-.16.52.23.56-.06,1.06-.09,1.59-.03.65.1,1.29-.21,1.91-.11.22.04.51.25.64.49.32.38.77.27,1.18-.33,1.21-.69,2.41-.92,3.64-.2,1.09-.62,2.07-1.25,2.98-.15.21-.33.42-.14.7.06.09,0,.17-.06.25-.66.88-1.07,1.93-1.9,2.69-.13.12-.21.36-.47.16-.1-.07-.23.05-.32.14-.17.16-.27.26-.44-.05-.15-.28-.28.05-.26.11.11.38-.43.4-.4.76,0,.13-.2.03-.27-.11-.11-.23-.15-.49-.39-.65-.22-.14-.26-.06-.26.25-.17-.51-.5-.72-.82-1-.43-.36-.89-.71-1.35-.78-.84-.13-1.07-.76-1.39-1.32l1-3.21c.75.05,1.44.44,2.19.6.78.17,1.57.26,2.35.34.25.03.49-.05.62-.23.09-.12-.03-.34-.13-.46-.15-.17-.36-.29-.54-.44-.25.4-.3-.04-.4-.12-.16-.13-.28-.32-.42-.5-.19.38-.33.29-.47-.04-.07-.17-.09-.49-.31-.45-.29.05-.32-.1-.41-.27-.23-.4-.46-.46-.85-.22-.14.09-.29.17-.43.25-.13.08-.25.09-.37-.02-.09-.08-.18-.15-.27-.23l.88-2.83L2.9,17.35l95.46,2.38Z"/><path  d="M65.32,52.75v.02s0,0,.01,0c0,0,0-.02,0-.02,0,0,0,0-.02.02"/><path  d="M54.95,65.28h-.02q0,.22-.5.37c.06-.31.18-.49.52-.37"/><path  d="M60.82,63.88c-.22.54-.45,1.08-.77,1.57-.06.09-.09.27-.25.18-.13-.08-.06-.22,0-.33.31-.5.63-.99,1.03-1.42h-.01Z"/><path  d="M60.93,65.61c0-.56.35-.96.65-1.38-.17.48-.33.97-.65,1.38"/><path  d="M60.87,64.71c.06-.36.25-.66.47-.95-.02.38-.22.68-.47.95"/><path  d="M62.16,62.74c-.01.36-.34.54-.45.83-.08-.4.25-.58.45-.83"/><path  d="M37.34,105.73c-.16-.11-.27.04-.39.13-.33.23-.67.44-.99.69-.43.34-.94.31-1.44.34l-.58.5-2.87,3.59,6.64-5.01c-.13-.08-.25-.15-.37-.23M22.53,116.44c-.22.47-.41.95-.71,1.37-.07.1-.12.19-.19.28l1.99-1.5c-.07-.09-.14-.17-.21-.25-.39-.47-.63-.43-.89.11"/><path  d="M71.17,80.73l-5.84,56.67-3.27,31.71-27.18-28.45-17.9-18.74c.18-.01.37.05.58.18.21.13.43.25.66.36.31.16.5.12.62-.27.27-.83.72-1.59,1.4-2.11.4-.3.56-.61.64-1.04.04-.24.09-.47.34-.58.18-.08.3-.22.4-.36,0,0,0,0,0,0l2-1.5c.36.45.7.91.98,1.42.18.34.65.39.91.11.15-.16.29-.33.42-.5.13-.16.29-.2.42-.05.3.33.55.22.76-.08.18-.26.62-.18.7-.57.25-1.29,1.15-2.25,1.74-3.37.09-.16.19-.37.38-.38.57-.01.5-.47.66-.8l.43-1.36.04-.05,6.64-5.01c.47.29.95.58,1.17,1.08.25.56.6.61,1.05.54.31-.05.47.05.6.31.21.4.43.79.67,1.18.13.21.28.24.37-.03.15-.42.49-.72.72-1.08.23-.37.49-.3.75-.08.26.22.5.47.76.71.45.41,1.31.22,1.56-.33.37-.81.71-1.63.9-2.5.23-1.08.82-2.01,1.25-3.01.11-.25.28-.43.59-.26.23.13.36-.03.44-.19.11-.2.17-.43.26-.65.25-.65.56-.79,1.14-.53.44-.79.57-1.7,1.05-2.47.23-.39.61-.54.97-.63.27-.07.39.31.55.52.09.12.11.32.33.36.04-.09.1-.18.12-.27.28-1.19.92-2.27,1.18-3.47,0-.03.02-.07.02-.1l.92-.51,2.93-1.18,2.85-3.61,1.04.73,2-2.84c.19.22.3.51.36.89.21-.49.7-.57.88-.97.34-.75.2-1.81,1.3-2.09.14-.54.49-.89.93-1.19.06-.04.04-.19.05-.29.01-.16.04-.31.06-.46l3.67-2.77Z"/></g></svg>